<svg width="512" height="512" viewBox="0 0 512 512" fill="none" xmlns="http://www.w3.org/2000/svg">
<path fill-rule="evenodd" clip-rule="evenodd" d="M257.94 183.446L187.304 115.331L152.812 151.505L221.624 217.855L142.79 292.539L72.3464 224.617L37.8542 260.781L106.469 326.948L21 407.912L55.1718 444.379L142.474 361.67L229.91 446L255.662 418.992L255.978 418.665L256.219 418.923L281.976 445.936L370.048 361L456.508 444.384L491 408.22L406.044 326.284L475.63 259.175L441.137 223.011L370.048 291.562L293.945 218.168L365.035 150.826L330.868 114.35L257.94 183.446ZM347.195 150.291L275.627 218.093L370.043 309.151L440.763 240.952L457.785 258.798L387.809 326.284L473.155 408.596L456.133 426.443L370.048 343.416L282.351 427.99L265.329 410.138L352.282 326.284L257.703 235.072L160.472 327.186L246.552 410.208L229.536 428.054L142.553 344.165L55.7042 426.443L38.8401 408.448L124.782 327.027L55.6993 260.405L72.7211 242.558L142.706 310.048L239.937 217.935L170.657 151.129L187.679 133.277L257.856 200.955L330.335 132.29L347.195 150.291ZM334.047 326.279L256.594 400.977L255.909 401.641L255.288 401.046L178.791 327.265L257.624 252.577L334.047 326.279Z" fill="#0060A6"/>
<path fill-rule="evenodd" clip-rule="evenodd" d="M373.474 175.722C350.616 175.722 332.086 194.358 332.085 217.345C332.085 240.332 350.616 258.967 373.474 258.967C396.332 258.967 414.863 240.332 414.863 217.345C414.862 194.358 396.332 175.722 373.474 175.722ZM373.474 188.413C389.362 188.413 402.242 201.367 402.243 217.345C402.243 233.323 389.363 246.276 373.474 246.276C357.585 246.276 344.705 233.323 344.705 217.345C344.706 201.367 357.586 188.413 373.474 188.413Z" fill="#0060A6"/>
<path fill-rule="evenodd" clip-rule="evenodd" d="M143.002 175.722C120.144 175.722 101.614 194.358 101.613 217.345C101.613 240.332 120.144 258.967 143.002 258.967C165.86 258.967 184.391 240.332 184.391 217.345C184.39 194.358 165.86 175.722 143.002 175.722ZM143.002 188.413C158.89 188.413 171.77 201.367 171.771 217.345C171.771 233.323 158.891 246.276 143.002 246.276C127.113 246.276 114.233 233.323 114.233 217.345C114.234 201.367 127.114 188.413 143.002 188.413Z" fill="#0060A6"/>
<path fill-rule="evenodd" clip-rule="evenodd" d="M258.236 66C235.377 66 216.847 84.6349 216.847 107.622C216.847 130.61 235.377 149.245 258.236 149.245C281.094 149.245 299.624 130.61 299.624 107.622C299.624 84.635 281.094 66 258.236 66ZM258.236 78.6909C274.124 78.6909 287.005 91.644 287.005 107.622C287.005 123.601 274.124 136.554 258.236 136.554C242.347 136.554 229.467 123.601 229.467 107.622C229.467 91.644 242.347 78.6909 258.236 78.6909Z" fill="#0060A6"/>
</svg>
