<svg width="512" height="512" viewBox="0 0 512 512" fill="none" xmlns="http://www.w3.org/2000/svg">
<rect x="16" y="16" width="480" height="480" rx="240" fill="#0060A6"/>
<path fill-rule="evenodd" clip-rule="evenodd" d="M257.511 185.484L202.505 132.426L175.645 160.604L229.23 212.287L167.841 270.462L112.985 217.554L86.1248 245.724L139.557 297.265L73 360.332L99.6104 388.737L167.595 324.311L235.683 390L255.737 368.962L255.983 368.707L256.171 368.908L276.228 389.95L344.812 323.79L412.14 388.741L439 360.571L372.843 296.747L427.031 244.473L400.171 216.303L344.812 269.701L285.549 212.531L340.908 160.075L314.301 131.662L257.511 185.484ZM327.015 159.658L271.284 212.473L344.808 283.402L399.879 230.278L413.134 244.18L358.643 296.747L425.104 360.865L411.848 374.766L344.812 310.093L276.52 375.971L263.265 362.066L330.977 296.747L257.326 225.698L181.61 297.45L248.643 362.12L235.392 376.021L167.656 310.676L100.025 374.766L86.8925 360.749L153.818 297.326L100.021 245.431L113.276 231.529L167.775 284.101L243.491 212.349L189.541 160.311L202.797 146.405L257.445 199.123L313.887 145.637L327.015 159.658ZM316.777 296.743L256.463 354.929L255.929 355.447L255.445 354.983L195.875 297.512L257.265 239.334L316.777 296.743Z" fill="white"/>
<path fill-rule="evenodd" clip-rule="evenodd" d="M347.48 179.468C329.68 179.468 315.25 193.984 315.25 211.89C315.25 229.795 329.68 244.311 347.48 244.311C365.28 244.311 379.71 229.795 379.71 211.89C379.71 193.984 365.28 179.468 347.48 179.468ZM347.48 189.353C359.852 189.353 369.882 199.444 369.883 211.89C369.883 224.336 359.853 234.426 347.48 234.426C335.107 234.426 325.077 224.336 325.077 211.89C325.077 199.444 335.107 189.353 347.48 189.353Z" fill="white"/>
<path fill-rule="evenodd" clip-rule="evenodd" d="M168.006 179.468C150.206 179.468 135.776 193.984 135.775 211.889C135.775 229.795 150.205 244.311 168.006 244.311C185.806 244.311 200.236 229.795 200.236 211.89C200.236 193.984 185.806 179.468 168.006 179.468ZM168.006 189.353C180.378 189.353 190.408 199.444 190.409 211.889C190.409 224.336 180.379 234.426 168.006 234.426C155.633 234.426 145.603 224.336 145.603 211.889C145.603 199.444 155.633 189.353 168.006 189.353Z" fill="white"/>
<path fill-rule="evenodd" clip-rule="evenodd" d="M257.741 94C239.941 94 225.511 108.516 225.511 126.422C225.511 144.328 239.941 158.843 257.741 158.843C275.541 158.843 289.971 144.328 289.971 126.422C289.971 108.516 275.541 94 257.741 94ZM257.741 103.886C270.114 103.886 280.144 113.975 280.144 126.422C280.144 138.868 270.114 148.958 257.741 148.958C245.368 148.958 235.338 138.868 235.338 126.422C235.338 113.975 245.368 103.886 257.741 103.886Z" fill="white"/>
</svg>
